<svg width="256" height="100" viewBox="0 0 256 100" fill="none" xmlns="http://www.w3.org/2000/svg">
<path d="M62.3673 5.98675C63.8137 2.37096 67.3156 6.58365e-07 71.21 6.23547e-07L140.953 0L128.817 30.34C128.093 32.1479 126.342 33.3333 124.395 33.3333H51.4287L62.3673 5.98675Z" fill="#0065F8"/>
<path d="M10.9386 39.32C12.3849 35.7042 15.8869 33.3333 19.7813 33.3333H51.4286L38.0952 66.6666H0L10.9386 39.32Z" fill="#FF3F33"/>
<path d="M126.422 36.3266C127.145 34.5187 128.896 33.3333 130.843 33.3333H165.714L152.381 66.6666H114.286L126.422 36.3266Z" fill="#FF3F33"/>
<path d="M152.381 66.6667H190.476L179.538 94.0133C178.091 97.6291 174.589 100 170.695 100H139.048L152.381 66.6667Z" fill="#FF3F33"/>
<path d="M203.809 33.3333H241.905L230.966 60.6799C229.52 64.2957 226.018 66.6667 222.123 66.6667H190.476L203.809 33.3333Z" fill="#0065F8"/>
<path d="M214.748 5.98675C216.194 2.37096 219.696 0 223.591 0H255.238L241.905 33.3333H203.809L214.748 5.98675Z" fill="#0065F8"/>
<path d="M38.0955 66.6667H76.1908L62.8574 100H24.7622L38.0955 66.6667Z" fill="#FF3F33"/>
<path d="M49.5239 38.0952L45.7144 33.3333C50.4069 33.3409 52.1832 31.5686 54.2858 26.1904L58.0953 33.3333C53.3269 33.2916 51.3049 34.1379 49.5239 38.0952Z" fill="url(#paint0_linear_202_154)"/>
<path d="M188.572 71.4287L184.762 66.6668C189.455 66.6744 191.231 64.9021 193.334 59.5239L197.143 66.6668C192.375 66.6251 190.353 67.4714 188.572 71.4287Z" fill="url(#paint1_linear_202_154)"/>
<defs>
<linearGradient id="paint0_linear_202_154" x1="56.1905" y1="30" x2="47.6191" y2="36.1904" gradientUnits="userSpaceOnUse">
<stop stop-color="#0065F8"/>
<stop offset="1" stop-color="#FF3F33"/>
</linearGradient>
<linearGradient id="paint1_linear_202_154" x1="195.238" y1="62.8573" x2="186.667" y2="69.0477" gradientUnits="userSpaceOnUse">
<stop stop-color="#0065F8"/>
<stop offset="1" stop-color="#FF3F33"/>
</linearGradient>
</defs>
</svg>
