<svg width="250" height="100" viewBox="0 0 250 100" fill="none" xmlns="http://www.w3.org/2000/svg">
<path d="M6.81807 42.1216C8.2608 36.9278 12.9898 33.3333 18.3803 33.3333H47.8395L38.5802 66.6667H0L6.81807 42.1216Z" fill="#FF3F33"/>
<path d="M38.5802 66.6667H77.1604L70.3423 91.2117C68.8996 96.4056 64.1706 100 58.7801 100H29.3209L38.5802 66.6667Z" fill="#FF3F33"/>
<path d="M54.6574 8.78827C56.1002 3.59443 60.8291 0 66.2196 0H80.9492H95.6789L86.4196 33.3333H47.8395L54.6574 8.78827Z" fill="#0065F8"/>
<path d="M95.6789 0H134.259L125 33.3333H86.4196L95.6789 0Z" fill="#0065F8"/>
<path d="M125 33.3333H155.686C159.654 33.3333 162.529 37.116 161.467 40.9392L154.321 66.6667H123.634C119.666 66.6667 116.791 62.884 117.853 59.0608L125 33.3333Z" fill="#FF3F33"/>
<path d="M154.321 66.6667H192.901L186.083 91.2117C184.641 96.4056 179.912 100 174.521 100H145.062L154.321 66.6667Z" fill="#FF3F33"/>
<path d="M202.161 33.3333H240.741L234.194 56.9018C232.591 62.6728 227.337 66.6666 221.347 66.6666L192.901 66.6667L202.161 33.3333Z" fill="#0065F8"/>
<path d="M208.979 8.78827C210.421 3.59443 215.15 0 220.541 0H250L240.741 33.3333H202.161L208.979 8.78827Z" fill="#0065F8"/>
</svg>
