<svg width="251" height="100" viewBox="0 0 251 100" fill="none" xmlns="http://www.w3.org/2000/svg">
<path d="M6.84534 42.1216C8.29385 36.9278 13.0418 33.3333 18.4538 33.3333H48.0309L38.7346 66.6667H0L6.84534 42.1216Z" fill="#999999"/>
<path d="M38.7346 66.6667H77.469L70.6237 91.2117C69.1752 96.4056 64.4273 100 59.0152 100H29.4382L38.7346 66.6667Z" fill="#999999"/>
<path d="M54.8761 8.78827C56.3246 3.59443 61.0725 0 66.4845 0H96.0616L86.7653 33.3333H48.0309L54.8761 8.78827Z" fill="#7C7C7C"/>
<path d="M96.0616 0H134.796L125.5 33.3333H86.7653L96.0616 0Z" fill="#7C7C7C"/>
<path d="M125.5 33.3333H156.309C160.293 33.3333 163.179 37.116 162.113 40.9392L154.938 66.6667H124.129C120.145 66.6667 117.258 62.884 118.325 59.0608L125.5 33.3333Z" fill="#999999"/>
<path d="M154.938 66.6667H193.673L186.828 91.2117C185.379 96.4056 180.631 100 175.219 100H145.642L154.938 66.6667Z" fill="#999999"/>
<path d="M202.969 33.3333H241.704L235.131 56.9018C233.521 62.6728 228.246 66.6666 222.233 66.6666L193.673 66.6667L202.969 33.3333Z" fill="#7C7C7C"/>
<path d="M209.815 8.78827C211.263 3.59443 216.011 0 221.423 0H251L241.704 33.3333H202.969L209.815 8.78827Z" fill="#7C7C7C"/>
</svg>
